<svg width="32" height="32" viewBox="0 0 32 32" fill="none" xmlns="http://www.w3.org/2000/svg">
<rect x="0.5" y="0.5" width="31" height="31" rx="7.5" fill="white" stroke="#DBDBDB"/>
<path d="M19.7023 12.6312C19.8131 12.7421 19.8742 12.8761 19.8832 12.9958C19.8912 13.1018 19.8616 13.2287 19.7258 13.3646L16.9236 16.1668L19.7265 18.9696C19.862 19.1054 19.8912 19.2318 19.8832 19.3377C19.8742 19.4574 19.8131 19.5914 19.7023 19.7023C19.5914 19.8131 19.4574 19.8742 19.3377 19.8832C19.2318 19.8912 19.1054 19.862 18.9696 19.7265L16.1667 16.9236L13.3646 19.7258C13.2287 19.8616 13.1018 19.8912 12.9958 19.8832C12.8761 19.8742 12.742 19.8131 12.6312 19.7023C12.5204 19.5914 12.4593 19.4574 12.4503 19.3377C12.4423 19.2317 12.4718 19.1049 12.6077 18.9689L15.4099 16.1668L12.607 13.3639C12.4714 13.2282 12.4423 13.1017 12.4503 12.9958C12.4593 12.8762 12.5204 12.7421 12.6312 12.6312C12.7421 12.5204 12.8761 12.4593 12.9958 12.4503C13.1017 12.4423 13.2281 12.4714 13.3639 12.6071L16.1667 15.4099L18.9689 12.6077C19.1048 12.4718 19.2317 12.4423 19.3377 12.4503C19.4574 12.4593 19.5914 12.5204 19.7023 12.6312Z" fill="#9F9F9F" stroke="#767676"/>
</svg>
