<svg width="32" height="32" viewBox="0 0 32 32" fill="none" xmlns="http://www.w3.org/2000/svg">
<rect x="0.5" y="0.5" width="31" height="31" rx="6.5" fill="white" stroke="#F8F8F8"/>
<path d="M18.5294 10.3002H18.5314C19.0251 10.2991 19.5142 10.3956 19.9698 10.5834H19.9708C20.355 10.7411 20.7092 10.9614 21.0187 11.2347L21.1486 11.3558C21.4856 11.6829 21.7556 12.0717 21.9425 12.5004V12.5013C22.1362 12.948 22.2349 13.4203 22.2335 13.9066V13.9086C22.2335 14.3627 22.1396 14.8517 21.9415 15.3656V15.3666C21.7775 15.7952 21.5324 16.2539 21.2111 16.7299C20.7028 17.4816 19.9914 18.2842 19.087 19.1127C17.9587 20.1455 16.8378 20.9394 16.3263 21.2855L16.0402 21.475L15.7325 21.6693L15.4269 21.475L15.4152 21.4681L15.3429 21.4213C15.295 21.39 15.2269 21.345 15.1417 21.2875C14.9711 21.1722 14.7319 21.007 14.4474 20.7992C13.8773 20.3827 13.129 19.8 12.38 19.1136V19.1127L12.0499 18.8041C11.3005 18.0849 10.6998 17.3879 10.255 16.7299C9.93456 16.2552 9.69091 15.7956 9.52454 15.3646C9.32661 14.8509 9.23354 14.3625 9.23352 13.9086C9.23352 13.4209 9.3318 12.948 9.52551 12.5013C9.71164 12.0724 9.98106 11.6835 10.3185 11.3568L10.3195 11.3558C10.6604 11.0245 11.0572 10.7645 11.4982 10.5834H11.4991C11.9549 10.3956 12.4372 10.3002 12.9386 10.3002C13.6334 10.3002 14.3099 10.489 14.8966 10.8441C15.0368 10.929 15.1697 11.0216 15.295 11.1224L15.7345 11.476L16.173 11.1224C16.2983 11.0216 16.4312 10.929 16.5714 10.8441C17.1581 10.489 17.8346 10.3002 18.5294 10.3002Z" stroke="#ECECEC" stroke-width="1.4"/>
</svg>
