<svg width="20" height="20" viewBox="0 0 20 20" fill="none" xmlns="http://www.w3.org/2000/svg">
<path d="M10 0C15.421 0 20 4.579 20 10C20 13.19 18.408 16.0778 16 17.9238V18H15.8984C14.2304 19.245 12.187 20 10 20C7.813 20 5.76956 19.245 4.10156 18H4V17.9238C1.59205 16.0778 0 13.189 0 10C0 4.579 4.579 0 10 0ZM9 14.5732C8.3173 14.5744 7.65497 14.8084 7.12305 15.2363C6.59142 15.6642 6.22159 16.2604 6.07422 16.9268C7.24221 17.6037 8.58402 18 10 18C11.416 18 12.7578 17.6037 13.9258 16.9268C13.7782 16.2603 13.4078 15.6642 12.876 15.2363C12.3441 14.8085 11.6826 14.5746 11 14.5732H9ZM10 2C5.663 2 2 5.663 2 10C2 12.1758 2.92286 14.1817 4.38965 15.6406C4.77109 14.7326 5.41252 13.9578 6.23242 13.4121C7.05242 12.8664 8.01501 12.5745 9 12.5732H11C11.985 12.5745 12.9476 12.8664 13.7676 13.4121C14.5875 13.9578 15.2289 14.7326 15.6104 15.6406C17.0771 14.1817 18 12.1758 18 10C18 5.663 14.337 2 10 2ZM10 4C12.28 4 14 5.72 14 8C14 10.28 12.28 12 10 12C7.72 12 6 10.28 6 8C6 5.72 7.72 4 10 4ZM10 6C8.822 6 8 6.822 8 8C8 9.178 8.822 10 10 10C11.178 10 12 9.178 12 8C12 6.822 11.178 6 10 6Z" fill="#9B9B9B"/>
</svg>
